<svg id="visual" viewBox="0 0 900 600" width="900" height="600" xmlns="http://www.w3.org/2000/svg" xmlns:xlink="http://www.w3.org/1999/xlink" version="1.1"><rect x="0" y="0" width="900" height="600" fill="#fff"></rect><g transform="translate(476.69448455807094 286.5348872760876)"><path d="M161 -188.4C195.1 -163.2 200 -99.7 201.9 -42.5C203.8 14.8 202.8 65.6 184.7 115.7C166.6 165.7 131.3 214.9 86.2 226.9C41.2 239 -13.8 213.9 -73.1 194.9C-132.4 175.9 -196.1 163 -228.7 123.7C-261.2 84.5 -262.6 19 -243.7 -35.1C-224.8 -89.2 -185.7 -132 -141.7 -155.4C-97.7 -178.9 -48.9 -183.2 7.3 -191.9C63.4 -200.6 126.8 -213.7 161 -188.4" fill="#d0c5dd"></path></g></svg>